{"title":"Lockjaw Rise of the Kulev Serpent (2008) BRrip 720p x264 [Hindi]","uid":9288308,"size":608957205,"categoryP":"video","categoryS":"hd___movies","magnet":"?xt=urn:btih:b24f02e54a936792b8098b13ef72ae48c80049c6&amp;dn=Lockjaw+Rise+of+the+Kulev+Serpent+%282008%29+BRrip+720p+x264+%5BHindi%5D&amp;tr=udp%3A%2F%2Ftracker.openbittorrent.com%3A80&amp;tr=udp%3A%2F%2Fopen.demonii.com%3A1337&amp;tr=udp%3A%2F%2Ftracker.coppersurfer.tk%3A6969&amp;tr=udp%3A%2F%2Fexodus.desync.com%3A6969","seeders":0,"leechers":2,"uploader":"Xdesiars","files":2,"time":1386050152,"description":"Format                                   : Matroska\nFormat version                           : Version 4 / Version 2\nFile size                                : 572 MiB\nDuration                                 : 1h 17mn\nOverall bit rate                         : 1 036 Kbps\nMovie name                               : Lockjaw Rise of the Kulev Serpent (2008) by XdesiArsenal\nEncoded date                             : UTC 2013-12-02 12:10:55\nWriting application                      : mkvmerge v6.4.1 ('Omega Point') built on Sep 16 2013 22:05:10\nWriting library                          : Lavf54.63.104\n\nVideo\nID                                       : 1\nFormat                                   : AVC\nFormat/Info                              : Advanced Video Codec\nFormat profile                           : &lt;a class=&quot;__cf_email__&quot; href=&quot;/cdn-cgi/l/email-protection&quot; data-cfemail=&quot;8fc7e6e8e7cfc3bca1be&quot;&gt;[email&amp;#160;protected]&lt;/a&gt;&lt;script cf-hash='f9e31' type=&quot;text/javascript&quot;&gt;\n/* &lt;![CDATA[ */!function(){try{var t=&quot;currentScript&quot;in document?document.currentScript:function(){for(var t=document.getElementsByTagName(&quot;script&quot;),e=t.length;e--;)if(t[e].getAttribute(&quot;cf-hash&quot;))return t[e]}();if(t&amp;&amp;t.previousSibling){var e,r,n,i,c=t.previousSibling,a=c.getAttribute(&quot;data-cfemail&quot;);if(a){for(e=&quot;&quot;,r=parseInt(a.substr(0,2),16),n=2;a.length-n;n+=2)i=parseInt(a.substr(n,2),16)^r,e+=String.fromCharCode(i);e=document.createTextNode(e),c.parentNode.replaceChild(e,c)}}}catch(u){}}();/* ]]&gt; */&lt;/script&gt;\nFormat settings, CABAC                   : Yes\nFormat settings, ReFrames                : 1 frame\nCodec ID                                 : V_MPEG4/ISO/AVC\nDuration                                 : 1h 17mn\nBit rate                                 : 927 Kbps\nWidth                                    : 1 280 pixels\nHeight                                   : 576 pixels\nDisplay aspect ratio                     : 2.222\nFrame rate mode                          : Constant\nFrame rate                               : 29.970 fps\nColor space                              : YUV\nChroma subsampling                       : 4:2:0\nBit depth                                : 8 bits\nScan type                                : Progressive\nBits/(Pixel*Frame)                       : 0.042\nStream size                              : 490 MiB (86%)\nTitle                                    : Lockjaw Rise of the Kulev Serpent (2008) by XdesiArsenal\nWriting library                          : x264 core 129\nDefault                                  : Yes\nForced                                   : No\n\nAudio\nID                                       : 2\nFormat                                   : AC-3\nFormat/Info                              : Audio Coding 3\nMode extension                           : CM (complete main)\nFormat settings, Endianness              : Big\nCodec ID                                 : A_AC3\nDuration                                 : 1h 17mn\nBit rate mode                            : Constant\nBit rate                                 : 128 Kbps\nChannel(s)                               : 6 channels\nChannel positions                        : Front: L C R, Side: L R, LFE\nSampling rate                            : 22.05 KHz\nBit depth                                : 16 bits\nCompression mode                         : Lossy\nStream size                              : 70.7 MiB (12%)\nTitle                                    : XdesiArsenal\nLanguage                                 : Hindi\nDefault                                  : Yes\nForced                                   : No\n","torrent":{"xt":"urn:btih:b24f02e54a936792b8098b13ef72ae48c80049c6","amp;dn":"Lockjaw+Rise+of+the+Kulev+Serpent+%282008%29+BRrip+720p+x264+%5BHindi%5D","amp;tr":["udp%3A%2F%2Ftracker.openbittorrent.com%3A80","udp%3A%2F%2Fopen.demonii.com%3A1337","udp%3A%2F%2Ftracker.coppersurfer.tk%3A6969","udp%3A%2F%2Fexodus.desync.com%3A6969"],"infoHash":"b24f02e54a936792b8098b13ef72ae48c80049c6","infoHashBuffer":{"type":"Buffer","data":[178,79,2,229,74,147,103,146,184,9,139,19,239,114,174,72,200,0,73,198]},"announce":[],"urlList":[]}}